HIERARCHY
ROOT SpineBase
{
  OFFSET 0.000000 0.000000 0.000000
  CHANNELS 6 Xposition Yposition Zposition Zrotation Xrotation Yrotation
  JOINT SpineMid
  {
    OFFSET 0.000000 27.081194 0.000000
    CHANNELS 3 Zrotation Xrotation Yrotation
    JOINT SpineShoulder
    {
      OFFSET -0.048155 20.086679 -0.578835
      CHANNELS 3 Zrotation Xrotation Yrotation
      JOINT Neck
      {
        OFFSET -0.021192 6.680491 -0.474152
        CHANNELS 3 Zrotation Xrotation Yrotation
        JOINT Head
        {
          OFFSET -3.097542 12.742565 -1.024631
          CHANNELS 3 Zrotation Xrotation Yrotation
          End Site
          {
            OFFSET 0 0 0
          }
        }
      }
      JOINT ShoulderLeft
      {
        OFFSET -13.389954 -5.256827 3.563809
        CHANNELS 3 Zrotation Xrotation Yrotation
        JOINT ElbowLeft
        {
          OFFSET -1.741691 -18.969551 4.891601
          CHANNELS 3 Zrotation Xrotation Yrotation
          JOINT WristLeft
          {
            OFFSET -0.521561 -19.948992 0.224650
            CHANNELS 3 Zrotation Xrotation Yrotation
            JOINT HandLeft
            {
              OFFSET 0.913023 -16.760989 -1.216975
              CHANNELS 3 Zrotation Xrotation Yrotation
              JOINT HandTipLeft
              {
                OFFSET 1.306575 -4.061782 -2.288648
                CHANNELS 3 Zrotation Xrotation Yrotation
                End Site
                {
                  OFFSET 0 0 0
                }
              }
              JOINT ThumbLeft
              {
                OFFSET -1.553514 0.979540 -0.651143
                CHANNELS 3 Zrotation Xrotation Yrotation
                End Site
                {
                  OFFSET 0 0 0
                }
              }
            }
          }
        }
      }
      JOINT ShoulderRight
      {
        OFFSET 12.013326 -3.053385 -11.102376
        CHANNELS 3 Zrotation Xrotation Yrotation
        JOINT ElbowRight
        {
          OFFSET 3.294877 -16.729667 -8.971270
          CHANNELS 3 Zrotation Xrotation Yrotation
          JOINT WristRight
          {
            OFFSET -13.339919 12.421631 -8.253164
            CHANNELS 3 Zrotation Xrotation Yrotation
            JOINT HandRight
            {
              OFFSET -4.517840 2.130629 -0.632039
              CHANNELS 3 Zrotation Xrotation Yrotation
              JOINT HandTipRight
              {
                OFFSET -4.053290 2.120793 -0.025213
                CHANNELS 3 Zrotation Xrotation Yrotation
                End Site
                {
                  OFFSET 0 0 0
                }
              }
              JOINT ThumbRight
              {
                OFFSET 2.336387 -1.982148 -4.091301
                CHANNELS 3 Zrotation Xrotation Yrotation
                End Site
                {
                  OFFSET 0 0 0
                }
              }
            }
          }
        }
      }
    }
  }
  JOINT HipLeft
  {
    OFFSET -5.321793 -0.033811 -0.029863
    CHANNELS 3 Zrotation Xrotation Yrotation
    JOINT KneeLeft
    {
      OFFSET 6.041651 -31.660920 8.696407
      CHANNELS 3 Zrotation Xrotation Yrotation
      JOINT AnkleLeft
      {
        OFFSET 6.255445 -30.647315 8.434110
        CHANNELS 3 Zrotation Xrotation Yrotation
        JOINT FootLeft
        {
          OFFSET -1.858951 -9.611369 -2.888922
          CHANNELS 3 Zrotation Xrotation Yrotation
          End Site
          {
            OFFSET 0 0 0
          }
        }
      }
    }
  }
  JOINT HipRight
  {
    OFFSET 4.886047 1.069313 -6.301422
    CHANNELS 3 Zrotation Xrotation Yrotation
    JOINT KneeRight
    {
      OFFSET 7.919004 -27.062068 1.876837
      CHANNELS 3 Zrotation Xrotation Yrotation
      JOINT AnkleRight
      {
        OFFSET 8.578819 -38.058920 10.856206
        CHANNELS 3 Zrotation Xrotation Yrotation
        JOINT FootRight
        {
          OFFSET -4.027045 -3.469167 -9.871560
          CHANNELS 3 Zrotation Xrotation Yrotation
          End Site
          {
            OFFSET 0 0 0
          }
        }
      }
    }
  }
}
MOTION
Frames: 6
Frame Time: 0.033333
23.380357 71.730309 361.270370 0.979615 -2.297198 30.396217 -0.065620 -0.245178 -30.351926 -0.013898 -0.140917 0.042209 -7.248672 4.034000 0.154294 0.000000 0.000000 0.000000 0.113920 8.242371 -0.371824 -1.412513 -7.035995 0.170254 -1.086559 -0.834390 -0.056073 -14.980878 -27.780588 -5.351140 0.000000 0.000000 0.000000 0.000000 0.000000 0.000000 -1.349852 48.768213 8.040850 -32.381422 -5.215342 2.690260 -17.024577 -15.114711 -10.432781 -12.962505 0.298874 12.493781 0.000000 0.000000 0.000000 0.000000 0.000000 0.000000 0.317223 2.477031 -30.383434 0.703685 -0.899854 0.015455 -19.516438 38.586461 4.302459 0.000000 0.000000 0.000000 1.702850 1.567646 -30.342355 -1.654427 0.085933 -0.088740 11.334964 -27.865322 19.167610 0.000000 0.000000 0.000000
23.301985 71.658311 361.387026 0.770108 -2.519981 30.500680 0.001513 -0.203949 -30.466141 -0.032781 -0.121727 0.033658 -6.599571 4.325966 0.235866 0.000000 0.000000 0.000000 0.382705 8.894059 -0.405760 -1.496317 -7.690650 0.188927 -1.012850 -1.457231 -0.112003 -14.475290 -25.936742 -4.543233 0.000000 0.000000 0.000000 0.000000 0.000000 0.000000 1.376316 50.246829 6.165570 -33.768691 -6.893739 1.437296 -15.444155 -15.104574 -4.334415 -11.672940 0.861509 4.456226 0.000000 0.000000 0.000000 0.000000 0.000000 0.000000 0.733092 3.407070 -30.443210 1.045136 -1.812571 -0.052992 -18.402096 36.154297 3.808183 0.000000 0.000000 0.000000 2.365842 1.632245 -30.399469 -1.979165 -0.082023 -0.163512 14.299118 -31.561433 14.917822 0.000000 0.000000 0.000000
23.233223 71.593402 361.463826 0.566045 -2.712170 30.611919 0.050714 -0.174314 -30.587654 -0.045615 -0.104639 0.025333 -5.932351 4.712716 0.343142 0.000000 0.000000 0.000000 0.542439 9.336873 -0.436366 -1.405221 -8.081571 0.232817 -1.251112 -1.611641 -0.113812 -12.817742 -23.445457 -3.764947 0.000000 0.000000 0.000000 0.000000 0.000000 0.000000 3.459590 51.367062 4.744139 -35.233219 -7.910071 -0.099709 -12.554805 -15.741166 1.602781 -12.657710 1.676798 -3.934817 0.000000 0.000000 0.000000 0.000000 0.000000 0.000000 1.260838 3.431463 -30.496299 0.708926 -2.025299 -0.188765 -18.836218 35.285377 4.226668 0.000000 0.000000 0.000000 2.933392 1.722869 -30.466528 -1.991351 -1.161637 -0.371339 13.648806 -29.928978 9.938503 0.000000 0.000000 0.000000
23.179424 71.542768 361.497272 0.389674 -2.860227 30.699055 0.067295 -0.169306 -30.684200 -0.052471 -0.098263 0.017897 -5.335499 5.172185 0.464392 0.000000 0.000000 0.000000 0.602928 9.511627 -0.451472 -1.174935 -8.158259 0.288231 -1.415462 -1.894921 -0.131310 -11.850467 -21.866571 -3.356602 0.000000 0.000000 0.000000 0.000000 0.000000 0.000000 4.318527 51.919995 4.230831 -35.782363 -8.631551 -1.434272 -9.729923 -16.284836 5.286752 -13.062755 1.008865 -18.463968 0.000000 0.000000 0.000000 0.000000 0.000000 0.000000 1.635147 3.929672 -30.544241 0.981285 -2.896469 -0.269210 -19.594916 34.482055 4.748586 0.000000 0.000000 0.000000 3.356328 1.859650 -30.511062 -2.325951 -0.441771 -0.301284 12.809360 -28.789243 6.019508 0.000000 0.000000 0.000000
23.141616 71.505945 361.499909 0.252959 -2.968665 30.778373 0.071281 -0.175710 -30.771127 -0.045176 -0.100154 0.012620 -4.932370 5.462250 0.532596 0.000000 0.000000 0.000000 0.537368 9.324453 -0.444095 -0.780483 -7.490767 0.339589 -1.872874 -2.059347 -0.100812 -11.301395 -24.191179 -4.831426 0.000000 0.000000 0.000000 0.000000 0.000000 0.000000 5.153647 52.731658 3.727422 -36.314496 -9.402936 -2.431430 -8.280607 -16.455136 7.101445 -16.271833 2.471563 -23.844934 0.000000 0.000000 0.000000 0.000000 0.000000 0.000000 2.050350 4.033627 -30.564627 0.804326 -3.307455 -0.395837 -20.608079 34.380125 5.430933 0.000000 0.000000 0.000000 3.655448 1.946811 -30.564452 -2.397490 -0.562255 -0.344585 9.507139 -21.968961 1.576227 0.000000 0.000000 0.000000
23.123942 71.489941 361.466146 0.168876 -3.020829 30.747312 0.039425 -0.209386 -30.744969 -0.041452 -0.131612 0.008675 -4.595549 5.781099 0.602173 0.000000 0.000000 0.000000 0.532697 9.353834 -0.445280 -0.548398 -7.176218 0.371899 -2.219113 -2.091665 -0.076005 -13.805330 -27.695418 -5.792502 0.000000 0.000000 0.000000 0.000000 0.000000 0.000000 5.323426 53.333428 3.717486 -36.301518 -9.748081 -2.407605 -12.315476 -14.689174 8.460374 -15.073557 2.239056 -34.857993 0.000000 0.000000 0.000000 0.000000 0.000000 0.000000 2.452262 3.754389 -30.458225 0.191358 -3.302713 -0.577368 -12.830943 22.889022 2.274077 0.000000 0.000000 0.000000 3.822829 2.050912 -30.506829 -2.406652 -0.682570 -0.383205 9.733916 -22.452217 1.704248 0.000000 0.000000 0.000000
